<svg xmlns="http://www.w3.org/2000/svg" viewBox="0 0 408.62 398.88"><g id="Layer_2" data-name="Layer 2"><g id="Layer_1-2" data-name="Layer 1"><path id="Path_1" data-name="Path 1" d="M273.24,172.49l-4.32,10.07-26.46,35.09s-18.12,19.56-8.05,20.7,16.69-18.12,16.69-18.12l31.06-30.78,3.45-14.09Z" fill="#9f616a"/><path id="Path_2" data-name="Path 2" d="M286.47,131.64l-4.17,1.17s-18.72,49.73-17,55.77,9.5,13.52,12.95,12.95S286.47,131.64,286.47,131.64Z" fill="#ff7643"/><path id="Path_3" data-name="Path 3" d="M344.73,387.24s-1.83,9.18,3.68,5.5A26.67,26.67,0,0,0,356.78,382Z" fill="#2f2e41"/><path id="Path_4" data-name="Path 4" d="M279.57,180.25s-58.39,206-37.68,212,51.2-.58,50.91-4.6-5.46-83.71-5.46-83.71,30.2,105.86,67.6,81.12S384,355.72,380.54,354s-55.52-83.7-55.23-99-.58-63-6.91-70.19Z" fill="#2f2e41"/><path id="Path_5" data-name="Path 5" d="M408.38,398.88H54v-1.35H408.62Z" fill="#3f3d56"/><path id="Path_6" data-name="Path 6" d="M316.66,107a12.08,12.08,0,0,1-1.5-16.29c-.25.23-.48.47-.71.72a12.08,12.08,0,0,0,17.81,16.33l.11-.13c.23-.25.44-.51.64-.77A12.08,12.08,0,0,1,316.66,107Z" fill="#2f2e41"/><circle id="Ellipse_1" data-name="Ellipse 1" cx="315.52" cy="85.04" r="24.88" fill="#2f2e41"/><path id="Path_7" data-name="Path 7" d="M248.5,391.39s-6.61,6.61,0,6.61a26.73,26.73,0,0,0,12.95-4.31Z" fill="#2f2e41"/><path id="Path_8" data-name="Path 8" d="M299.7,100.57s4.32,17.84,1.15,21.29-10.06,6-10.06,6l1.15,32.22s13.23-4.6,13.8-5.18,12.37-19.27,12.37-19.27l11.5-10.93S312.06,116.4,317.25,102,299.7,100.57,299.7,100.57Z" fill="#9f616a"/><circle id="Ellipse_2" data-name="Ellipse 2" cx="310.35" cy="92.23" r="14.96" fill="#9f616a"/><path id="Path_9" data-name="Path 9" d="M318.4,184.85S325,163,328.19,160.12s10.93-29.92,10.93-29.92-4.89-6.61-8.92-6.61-7.76,1.43-12.36,5.75a46.28,46.28,0,0,1-9.72,6.06,10.73,10.73,0,0,1-14.43-4.67l-.09-.18a4.22,4.22,0,0,1-.23-4.1s-10.65,2.88-11.22,6.91,0,12.36-.86,14.09-3.45,4.32-2.3,15.25a109.09,109.09,0,0,1-1.2,24.75C288.54,197.72,303.42,191.38,318.4,184.85Z" fill="#ff7643"/><ellipse id="Ellipse_3" data-name="Ellipse 3" cx="310.2" cy="78.86" rx="12.66" ry="8.63" fill="#2f2e41"/><circle id="Ellipse_4" data-name="Ellipse 4" cx="331.78" cy="66.2" r="12.08" fill="#2f2e41"/><path id="Path_10" data-name="Path 10" d="M340.41,74.83a12.09,12.09,0,0,1-12-11.07c0,.33,0,.66,0,1a12.08,12.08,0,0,0,24.16,0h0c0-.34,0-.67-.05-1A12.08,12.08,0,0,1,340.41,74.83Z" fill="#2f2e41"/><path id="Path_11" data-name="Path 11" d="M312.07,259.6h-4l-8,70,26.49-.89Z" fill="#ff7643"/><path id="Path_12" data-name="Path 12" d="M312.07,259.6h-4l-8,70,26.49-.89Z" opacity="0.2" style="isolation:isolate"/><path id="Path_13" data-name="Path 13" d="M310.73,258.7l-4.91,70.51,60.12,4.46L370.85,265Z" fill="#ff7643"/><circle id="Ellipse_5" data-name="Ellipse 5" cx="330.97" cy="264.95" r="0.89" opacity="0.2" style="isolation:isolate"/><circle id="Ellipse_6" data-name="Ellipse 6" cx="349.71" cy="267.18" r="0.89" opacity="0.2" style="isolation:isolate"/><path id="Path_14" data-name="Path 14" d="M349.93,267.19h-.44c0-.19.31-19-10.5-20.75a5.69,5.69,0,0,0-5.17,1.43c-4.46,4.43-2.62,16.93-2.6,17.05l-.44.07c-.08-.53-1.88-12.85,2.73-17.43a6.09,6.09,0,0,1,5.56-1.57C350.26,247.79,349.94,267,349.93,267.19Z" fill="#3f3d56"/><path id="Path_15" data-name="Path 15" d="M340,169.9,338.54,186l2.87,48.32S348,258.78,338,258.21s-6.33-25.6-6.33-25.6L327,176.52Z" fill="#9f616a"/><path id="Path_16" data-name="Path 16" d="M331.63,126.17l7.48,4s10.07,68.43,4.32,75.05-17.55,9.2-18.13,6.61-2.59-55.2-2.59-55.2Z" fill="#ff7643"/><path id="Path_17" data-name="Path 17" d="M40.72,0H32.33a1.11,1.11,0,0,0-1.11,1.11h0V4.8a1.11,1.11,0,0,0,1.11,1.11h1.39v5.51h5.61V5.91h1.39A1.11,1.11,0,0,0,41.83,4.8h0V1.11A1.11,1.11,0,0,0,40.72,0Z" fill="#e6e6e6"/><path id="Path_18" data-name="Path 18" d="M49.12,33.7a43.12,43.12,0,0,1-7.5-25.57.91.91,0,0,0-.71-.91V5.63H32.05V7.2h-.12a.91.91,0,0,0-.91.91h0v.06A39.36,39.36,0,0,1,24,34.35a2.49,2.49,0,0,0-.45,1.52l1,30A2.61,2.61,0,0,0,27,68.34h20a2.58,2.58,0,0,0,2.57-2.55L50,36.7A5.25,5.25,0,0,0,49.12,33.7Z" fill="#e6e6e6"/><path id="Path_19" data-name="Path 19" d="M46,43.65H28.51a1.78,1.78,0,0,0-1.79,1.79,1.23,1.23,0,0,0,0,.27l2.63,17.14H44.51l3.2-17.08a1.79,1.79,0,0,0-1.43-2.09,1.84,1.84,0,0,0-.33,0Z" fill="#fff"/><path id="Path_20" data-name="Path 20" d="M134.1,89.77h-8.39a1.11,1.11,0,0,0-1.11,1.11h0v3.68a1.12,1.12,0,0,0,1.11,1.12h1.39v5.51h5.61V95.68h1.39a1.12,1.12,0,0,0,1.11-1.12h0V90.88A1.11,1.11,0,0,0,134.1,89.77Z" fill="#e6e6e6"/><path id="Path_21" data-name="Path 21" d="M142.5,123.47A43.19,43.19,0,0,1,135,97.9a.91.91,0,0,0-.71-.91V95.4h-8.86V97h-.12a.9.9,0,0,0-.91.9v.07a39.36,39.36,0,0,1-7.07,26.18,2.47,2.47,0,0,0-.45,1.52l1,30a2.59,2.59,0,0,0,2.57,2.51h20a2.6,2.6,0,0,0,2.57-2.55l.37-29.1A5.16,5.16,0,0,0,142.5,123.47Z" fill="#e6e6e6"/><path id="Path_22" data-name="Path 22" d="M139.33,133.42H121.89a1.79,1.79,0,0,0-1.79,1.79,2.45,2.45,0,0,0,0,.27l2.63,17.13h15.14l3.2-17.07a1.79,1.79,0,0,0-1.43-2.09l-.33,0Z" fill="#fff"/><path id="Path_23" data-name="Path 23" d="M28.93,216.67H25a.53.53,0,0,0-.53.53h0V219a.52.52,0,0,0,.53.52h.66v2.62h2.66v-2.62h.66a.52.52,0,0,0,.52-.52h0V217.2a.52.52,0,0,0-.52-.53Z" fill="#e6e6e6"/><path id="Path_24" data-name="Path 24" d="M32.91,232.66a20.47,20.47,0,0,1-3.56-12.13.42.42,0,0,0-.34-.43v-.76h-4.2v.75h-.06a.43.43,0,0,0-.43.43h0v0A18.71,18.71,0,0,1,21,233a1.21,1.21,0,0,0-.21.71l.46,14.22a1.23,1.23,0,0,0,1.22,1.19h9.5a1.23,1.23,0,0,0,1.22-1.21l.18-13.8A2.49,2.49,0,0,0,32.91,232.66Z" fill="#e6e6e6"/><rect id="Rectangle_6" data-name="Rectangle 6" x="22.47" y="237.88" width="9.07" height="4.53" fill="#fff"/><path id="Path_25" data-name="Path 25" d="M47.45,216.67h-4a.53.53,0,0,0-.53.53h0V219a.52.52,0,0,0,.53.52h.66v2.62h2.66v-2.62h.66A.52.52,0,0,0,48,219h0V217.2A.53.53,0,0,0,47.45,216.67Z" fill="#e6e6e6"/><path id="Path_26" data-name="Path 26" d="M51.43,232.66a20.54,20.54,0,0,1-3.56-12.13.42.42,0,0,0-.34-.43v-.76h-4.2v.75h-.06a.43.43,0,0,0-.43.43h0v0A18.7,18.7,0,0,1,39.49,233a1.15,1.15,0,0,0-.22.71l.46,14.22A1.23,1.23,0,0,0,41,249.09h9.51a1.24,1.24,0,0,0,1.22-1.21l.17-13.8A2.49,2.49,0,0,0,51.43,232.66Z" fill="#e6e6e6"/><rect id="Rectangle_7" data-name="Rectangle 7" x="41" y="237.88" width="9.07" height="4.53" fill="#fff"/><path id="Path_27" data-name="Path 27" d="M66,216.67H62a.53.53,0,0,0-.53.53h0V219a.52.52,0,0,0,.53.52h.66v2.62h2.66v-2.62H66a.52.52,0,0,0,.53-.52h0V217.2A.53.53,0,0,0,66,216.67Z" fill="#e6e6e6"/><path id="Path_28" data-name="Path 28" d="M70,232.66a20.4,20.4,0,0,1-3.56-12.13.43.43,0,0,0-.35-.43v-.76h-4.2v.75H61.8a.43.43,0,0,0-.43.43h0v0A18.7,18.7,0,0,1,58,233a1.15,1.15,0,0,0-.22.71l.46,14.22a1.24,1.24,0,0,0,1.22,1.19H69a1.24,1.24,0,0,0,1.22-1.21l.17-13.8A2.49,2.49,0,0,0,70,232.66Z" fill="#e6e6e6"/><rect id="Rectangle_8" data-name="Rectangle 8" x="59.52" y="237.88" width="9.07" height="4.53" fill="#fff"/><path id="Path_29" data-name="Path 29" d="M119.52,181.94h-8.39a1.12,1.12,0,0,0-1.11,1.12h0v3.68a1.11,1.11,0,0,0,1.11,1.11h1.39v5.52h5.61v-5.52h1.39a1.11,1.11,0,0,0,1.12-1.11h0v-3.68a1.12,1.12,0,0,0-1.11-1.12Z" fill="#e6e6e6"/><path id="Path_30" data-name="Path 30" d="M127.93,215.64a43.08,43.08,0,0,1-7.5-25.57.9.9,0,0,0-.71-.9v-1.6h-8.86v1.57h-.12a.91.91,0,0,0-.91.91v.07a39.38,39.38,0,0,1-7.07,26.18,2.54,2.54,0,0,0-.46,1.51l1,30a2.6,2.6,0,0,0,2.58,2.5h20a2.6,2.6,0,0,0,2.58-2.54l.37-29.1A5.27,5.27,0,0,0,127.93,215.64Z" fill="#e6e6e6"/><path id="Path_31" data-name="Path 31" d="M124.76,225.6H107.32a1.79,1.79,0,0,0-1.79,1.79,1.23,1.23,0,0,0,0,.27l2.63,17.13h15.14l3.2-17.07a1.79,1.79,0,0,0-1.43-2.09,1.24,1.24,0,0,0-.33,0Z" fill="#fff"/><path id="Path_32" data-name="Path 32" d="M124.11,72.2h-50c3.5-18.9,2.69-41.72,0-66.28h50C121.49,30.47,120.7,53.3,124.11,72.2Z" fill="#e6e6e6"/><circle id="Ellipse_7" data-name="Ellipse 7" cx="99.41" cy="37.25" r="12.05" fill="#fff"/><path id="Path_33" data-name="Path 33" d="M78.32,160.16h-50c3.49-18.9,2.69-41.72,0-66.28h50C75.69,118.43,74.92,141.26,78.32,160.16Z" fill="#e6e6e6"/><circle id="Ellipse_8" data-name="Ellipse 8" cx="53.62" cy="125.21" r="12.05" fill="#fff"/><path id="Path_34" data-name="Path 34" d="M152.42,76.41h-50c3.5-18.9,2.69-41.72,0-66.27h50C149.8,34.69,149,57.51,152.42,76.41Z" fill="#e6e6e6"/><circle id="Ellipse_9" data-name="Ellipse 9" cx="127.72" cy="41.47" r="12.05" fill="#fff"/><path id="Path_35" data-name="Path 35" d="M152.42,73.4h-50c3.5-18.9,2.69-41.72,0-66.27h50C149.8,31.68,149,54.5,152.42,73.4Z" fill="#e6e6e6"/><circle id="Ellipse_10" data-name="Ellipse 10" cx="127.72" cy="38.46" r="12.05" fill="#fff"/><path id="Path_36" data-name="Path 36" d="M152.42,76.41h-50c3.5-18.9,2.69-41.72,0-66.27h50C149.8,34.69,149,57.51,152.42,76.41Z" fill="#e6e6e6"/><circle id="Ellipse_11" data-name="Ellipse 11" cx="127.72" cy="41.47" r="12.05" fill="#fff"/><rect id="Rectangle_9" data-name="Rectangle 9" y="68.58" width="163.87" height="18.07" fill="#e6e6e6"/><rect id="Rectangle_10" data-name="Rectangle 10" y="158.35" width="163.87" height="18.07" fill="#e6e6e6"/><rect id="Rectangle_11" data-name="Rectangle 11" y="248.12" width="163.87" height="18.07" fill="#e6e6e6"/></g></g></svg>