<svg xmlns="http://www.w3.org/2000/svg" viewBox="0 0 587.93 422.32"><g id="Layer_2" data-name="Layer 2"><g id="Layer_2-2" data-name="Layer 2"><rect id="Rectangle_338" data-name="Rectangle 338" x="0.18" y="0.24" width="431.17" height="276.14" fill="#e6e6e6"/><rect id="Rectangle_339" data-name="Rectangle 339" x="12.51" y="34.88" width="406.51" height="225.17" fill="#fff"/><rect id="Rectangle_340" data-name="Rectangle 340" width="431.17" height="18.32" fill="#ff7643"/><circle id="Ellipse_513" data-name="Ellipse 513" cx="13.61" cy="9.37" r="3.4" fill="#fff"/><circle id="Ellipse_514" data-name="Ellipse 514" cx="26.5" cy="9.37" r="3.4" fill="#fff"/><circle id="Ellipse_515" data-name="Ellipse 515" cx="39.39" cy="9.37" r="3.4" fill="#fff"/><rect id="Rectangle_341" data-name="Rectangle 341" x="62.53" y="53.4" width="79.51" height="86.26" fill="#e6e6e6"/><rect id="Rectangle_342" data-name="Rectangle 342" x="176.02" y="53.4" width="79.51" height="86.26" fill="#e6e6e6"/><rect id="Rectangle_343" data-name="Rectangle 343" x="289.5" y="53.4" width="79.51" height="86.26" fill="#e6e6e6"/><rect id="Rectangle_344" data-name="Rectangle 344" x="62.53" y="155.27" width="79.51" height="86.26" fill="#e6e6e6"/><rect id="Rectangle_345" data-name="Rectangle 345" x="176.02" y="155.27" width="79.51" height="86.26" fill="#e6e6e6"/><rect id="Rectangle_346" data-name="Rectangle 346" x="289.5" y="155.27" width="79.51" height="86.26" fill="#e6e6e6"/><path id="Path_2643" data-name="Path 2643" d="M195.23,177.44l14.53-5.74,1.69,28.71s3,8.79,2,12.16c0,0,.66,5.75-1,6.09a28.38,28.38,0,0,1-6.75.66c-.34-.34-.34-1.35-.34-1.35a9.45,9.45,0,0,0-3.72,5.07s-14.18,4.39-14.52.33,7.1-7.43,7.1-7.43l5.74-8.78Z" fill="#fff"/><path id="Path_2644" data-name="Path 2644" d="M226,177.44l14.52-5.74,1.69,28.71s3,8.79,2,12.16c0,0,.66,5.75-1,6.09a28.32,28.32,0,0,1-6.75.66c-.34-.34-.34-1.35-.34-1.35A9.38,9.38,0,0,0,232.4,223s-14.19,4.39-14.53.33,7.1-7.43,7.1-7.43l5.74-8.78Z" fill="#fff"/><path id="Path_2645" data-name="Path 2645" d="M227.4,66.55s-3.09,8.64.49,12.54l-3,10.27s10.62,31.84,7.58,36.29c0,0-11.32,5.66-34-2l9.2-35.69-1.32-15.06,1.82-7.08,4-.4s-2.43,9.1,2,10.51,8.79-10.29,8.79-10.29Z" fill="#3f3d56"/><path id="Path_2646" data-name="Path 2646" d="M84.55,122.34l3.9,1.6,18.63-24.49,5.86,28.75,3.9-.71c2.5-24.78,4.55-50.06,2-62l-14.46-.63L97.85,85.79,94.66,100Z" fill="#fff"/><path id="Path_2647" data-name="Path 2647" d="M321.46,65.28s-5.32,7.41-5.06,10.39S320,127.39,320,127.39l7.93.39L325.62,92.7l1.95-9.48,4.81,44.17,9.74.26-8.7-57.3-1.69-5.07Z" fill="#fff"/><path id="Path_2648" data-name="Path 2648" d="M351.57,184.59a11,11,0,0,0-6.18-3.1,32.92,32.92,0,0,0-7.22-1.39L335.46,178l-8.3,4.31-4.66-3.18-2.17.77a41.21,41.21,0,0,0-6.73.8c-1.3,0-3,.13-4.82.27-6.52.5-7,17.39-7,17.39a26.62,26.62,0,0,1,9.44-2l1.76,20.2a93.38,93.38,0,0,1,28.42,2.34L346,203l10.76-4.18S354.91,188.6,351.57,184.59Z" fill="#3f3d56"/><path id="Path_2649" data-name="Path 2649" d="M120.67,175a9.07,9.07,0,0,0-5.09-2.57,27.33,27.33,0,0,0-6-1.14l-2.22-1.78L100.57,173l-3.85-2.61-1.77.63a34.48,34.48,0,0,0-5.55.67c-1.07,0-2.44.1-4,.22-5.37.41-5.78,14.33-5.78,14.33a21.82,21.82,0,0,1,7.77-1.63l1.45,40.73a77.13,77.13,0,0,1,23.41,1.93l3.81-37.17,8.86-3.45S123.43,178.28,120.67,175Z" fill="#fff"/><path id="Path_2682" data-name="Path 2682" d="M501.21,185.82h38.12V165.43a19.06,19.06,0,0,0-38.12,0h0Z" fill="#2f2e41"/><path id="Path_2683" data-name="Path 2683" d="M484.19,412.76H476l-3.9-31.63h12.1Z" fill="#ffb6b6"/><path id="Path_2684" data-name="Path 2684" d="M486.28,410.08H470.14a10.29,10.29,0,0,0-10.29,10.29v.34h26.43Z" fill="#2f2e41"/><path id="Path_2685" data-name="Path 2685" d="M582.2,401.82l-7.14,4-18.94-25.62,10.54-6Z" fill="#ffb6b6"/><path id="Path_2686" data-name="Path 2686" d="M582.71,398.46l-14.06,7.94h0a10.29,10.29,0,0,0-3.91,14l.17.29,23-13Z" fill="#2f2e41"/><path id="Path_2687" data-name="Path 2687" d="M529.8,270.53l.64,3.17s1.89,1.89.95,2.84-.64,5.38-.64,5.38c.53,8.08,11.09,53.46,13,62.32a95.45,95.45,0,0,1,25.95,28.16c11.38,18.66,11.7,23.41,11.7,23.41l-12.65,5.38L537.08,362.9s-8.86-5.38-12-10.13S502.28,299,502.28,299l-11.07,51.26s.63,18.66-2.22,30.68A129.33,129.33,0,0,0,485.82,404L471,402.43s.95-44.92,2.53-49.66c0,0-6.64-54.73,6.64-76.56l10.71-28.55,10.49-4Z" fill="#2f2e41"/><path id="Path_2688" data-name="Path 2688" d="M520.46,151.35c-20,.34-20,30,0,30.37C540.42,181.37,540.42,151.68,520.46,151.35Z" fill="#ffb8b8"/><path id="Path_2689" data-name="Path 2689" d="M505.1,165.74h3.4l.92-2.31-.46,2.31h18.55l-.6-4.83,4.51,4.83h4.5v-2.62a15.41,15.41,0,0,0-30.81,0v2.64Z" fill="#2f2e41"/><path id="Path_2690" data-name="Path 2690" d="M499.88,190.58l37.72.31-8,80.87s-44.11-2.33-44.14-15.8l4.14-12Z" fill="#3f3d56"/><path id="Path_2693" data-name="Path 2693" d="M539.22,279.57a6.27,6.27,0,0,1,.89-8.82,6.44,6.44,0,0,1,.92-.62l-1.64-14.24,8.41-3.11,2,20.14a6.31,6.31,0,0,1-10.61,6.66Z" fill="#ffb6b6"/><path id="Path_2694" data-name="Path 2694" d="M532.65,197.86l5-6.94s3.4-.76,7.41,3.93S551.37,258,551.37,258l-14.71,3.35L528,219.92Z" fill="#3f3d56"/><path id="Path_37" data-name="Path 37" d="M449.5,261.32l1.1,52,33.65,17.79,61.29-10.94,1.51-54-38.84-13.69Z" fill="#fff"/><path id="Path_38" data-name="Path 38" d="M484.16,331.65l-34.09-18L449,260.86l59.29-9,.12,0,39.23,13.81-1.53,54.87Zm-33-18.68,33.21,17.55L545,319.68l1.48-53.21L508.14,253l-58.09,8.81Z" fill="#cacaca"/><path id="Path_39" data-name="Path 39" d="M483.5,275.41l-.13-.05-34.06-13.54.39-1,33.93,13.49L547,265.57l.14,1.06Z" fill="#cacaca"/><rect id="Rectangle_14" data-name="Rectangle 14" x="483.37" y="274.86" width="1.07" height="56.23" transform="translate(-3.65 5.91) rotate(-0.7)" fill="#cacaca"/><path id="Path_40" data-name="Path 40" d="M479.2,272.72l-12.28-5L526,258.32l12.28,5Z" fill="#cacaca"/><rect id="Rectangle_15" data-name="Rectangle 15" x="456.09" y="272.21" width="1.07" height="15.51" transform="translate(18.91 588.65) rotate(-66.71)" fill="#cacaca"/><rect id="Rectangle_16" data-name="Rectangle 16" x="462.54" y="289.94" width="1.07" height="15.51" transform="translate(6.52 605.29) rotate(-66.71)" fill="#ff7643"/><path id="Path_41" data-name="Path 41" d="M262.25,333.54l1.09,52L297,403.32l61.29-10.95,1.51-54L321,324.65Z" fill="#fff"/><path id="Path_42" data-name="Path 42" d="M296.91,403.88l-34.1-18-1.11-52.78,59.29-9,.13,0L360.34,338l-1.52,54.87Zm-33-18.69,33.22,17.56,60.67-10.84,1.49-53.21-38.36-13.51L262.8,334Z" fill="#cacaca"/><path id="Path_43" data-name="Path 43" d="M296.25,347.64l-.13-.06L262.05,334l.4-1,33.92,13.48,63.34-8.73.14,1.06Z" fill="#cacaca"/><rect id="Rectangle_17" data-name="Rectangle 17" x="296.12" y="347.09" width="1.07" height="56.23" transform="translate(-4.54 3.64) rotate(-0.7)" fill="#cacaca"/><path id="Path_44" data-name="Path 44" d="M289,343.73,279.66,340l59.12-9.42,9.3,3.75Z" fill="#cacaca"/><rect id="Rectangle_18" data-name="Rectangle 18" x="268.83" y="344.43" width="1.07" height="15.51" transform="translate(-160.63 460.32) rotate(-66.71)" fill="#cacaca"/><rect id="Rectangle_19" data-name="Rectangle 19" x="275.28" y="362.17" width="1.07" height="15.51" transform="translate(-173.02 476.96) rotate(-66.71)" fill="#ff7643"/><path id="Path_45" data-name="Path 45" d="M320.72,340.67,322,401l39.06,20.64L432.2,409,434,346.23l-45.1-15.89Z" fill="#ff7643"/><path id="Path_46" data-name="Path 46" d="M361,422.32,321.37,401.4l-1.29-61.26,68.83-10.44.15.05,45.53,16-1.78,63.7ZM322.6,400.64,361.16,421l70.44-12.58,1.72-61.77L388.78,331,321.34,341.2Z" fill="#3f3d56"/><path id="Path_47" data-name="Path 47" d="M360.18,357,360,357l-39.55-15.72.46-1.16,39.39,15.66,73.53-10.14.17,1.24Z" fill="#3f3d56"/><rect id="Rectangle_20" data-name="Rectangle 20" x="360.03" y="356.39" width="1.25" height="65.28" transform="translate(-4.71 4.42) rotate(-0.7)" fill="#3f3d56"/><path id="Path_48" data-name="Path 48" d="M352.37,352.51l-11.44-4.39,68.63-10.93L421,341.57Z" fill="#3f3d56"/><rect id="Rectangle_21" data-name="Rectangle 21" x="328.36" y="353.31" width="1.25" height="18" transform="translate(-133.89 521.19) rotate(-66.71)" fill="#3f3d56"/><rect id="Rectangle_22" data-name="Rectangle 22" x="335.85" y="373.9" width="1.25" height="18" transform="translate(-148.28 540.52) rotate(-66.71)" fill="#fff"/><path id="Path_2691" data-name="Path 2691" d="M468.58,269.91a6.27,6.27,0,0,0,3-8.34,7.74,7.74,0,0,0-.56-1l7.64-12.12-6.24-6.44L461.9,259.33a6.3,6.3,0,0,0,6.68,10.58Z" fill="#ffb6b6"/><path id="Path_2692" data-name="Path 2692" d="M505.68,193.77l-5.47-3.61s-4.22,1-8.72,9.59S468.89,247,468.89,247l7.44,7.55,19.86-30.3Z" fill="#3f3d56"/></g></g></svg>